<?xml version="1.0" encoding="UTF-8" standalone="no"?>
<!-- Created with Inkscape (http://www.inkscape.org/) -->

<svg
   width="200mm"
   height="200mm"
   viewBox="0 0 200 200"
   version="1.1"
   id="svg1"
   inkscape:version="1.4 (86a8ad7, 2024-10-11)"
   sodipodi:docname="station_cook.svg"
   xmlns:inkscape="http://www.inkscape.org/namespaces/inkscape"
   xmlns:sodipodi="http://sodipodi.sourceforge.net/DTD/sodipodi-0.dtd"
   xmlns:xlink="http://www.w3.org/1999/xlink"
   xmlns="http://www.w3.org/2000/svg"
   xmlns:svg="http://www.w3.org/2000/svg">
  <sodipodi:namedview
     id="namedview1"
     pagecolor="#ffffff"
     bordercolor="#000000"
     borderopacity="0.25"
     inkscape:showpageshadow="2"
     inkscape:pageopacity="0.0"
     inkscape:pagecheckerboard="0"
     inkscape:deskcolor="#d1d1d1"
     inkscape:document-units="mm"
     inkscape:zoom="1.0396254"
     inkscape:cx="396.77752"
     inkscape:cy="407.35826"
     inkscape:window-width="3440"
     inkscape:window-height="1369"
     inkscape:window-x="3832"
     inkscape:window-y="710"
     inkscape:window-maximized="1"
     inkscape:current-layer="layer1" />
  <defs
     id="defs1">
    <linearGradient
       id="linearGradient2"
       inkscape:collect="always">
      <stop
         style="stop-color:#0600f8;stop-opacity:1;"
         offset="0"
         id="stop2" />
      <stop
         style="stop-color:#f50000;stop-opacity:1;"
         offset="1"
         id="stop3" />
    </linearGradient>
    <linearGradient
       inkscape:collect="always"
       xlink:href="#linearGradient2"
       id="linearGradient3"
       x1="73.550125"
       y1="85.638817"
       x2="92.637527"
       y2="85.638817"
       gradientUnits="userSpaceOnUse"
       gradientTransform="matrix(0.702894,0,0,1.9824133,-171.53534,-77.960364)" />
  </defs>
  <g
     inkscape:label="Layer 1"
     inkscape:groupmode="layer"
     id="layer1">
    <rect
       style="fill:#757575;fill-opacity:1;stroke-width:0.228133"
       id="rect1"
       width="177.1311"
       height="54.43301"
       x="9.9254494"
       y="122.95258" />
    <rect
       style="fill:#6b6b6b;fill-opacity:1;stroke-width:0.260941"
       id="rect5"
       width="78.451584"
       height="88.499908"
       x="59.128532"
       y="25.195362" />
    <rect
       style="fill:#6b6b6b;fill-opacity:1;stroke-width:0.044735"
       id="rect5-2"
       width="17.221079"
       height="11.849353"
       x="137.12186"
       y="36.765675" />
    <ellipse
       style="fill:url(#linearGradient3);stroke-width:0.312323"
       id="path2"
       cx="-113.12918"
       cy="91.811066"
       rx="6.7082109"
       ry="32.037125"
       transform="matrix(-0.07278658,-0.99734754,0.99995835,-0.00912656,0,0)" />
    <path
       style="fill:#000000;fill-opacity:1;stroke-width:0.17838"
       id="path1"
       d="m 94.466401,119.47603 c 2.32048,0.18452 4.64692,0.35156 6.994569,0.47239 0.86077,0.0259 1.72542,0.0885 2.59158,0.0866 0.77139,-0.001 1.52622,-0.065 2.2797,-0.12178 1.38859,-0.15423 2.02689,-0.3418 2.93744,-0.76784 0.67809,-0.38374 0.87467,-0.8425 0.99601,-1.29722 0.11731,-0.38028 0.0837,-0.74501 -0.25843,-1.10492 -0.47862,-0.37611 -1.36528,-0.63237 -2.27703,-0.83531 -1.44466,-0.32157 -2.90142,-0.63462 -4.35214,-0.95194 -2.23407,-0.31807 -4.607679,-0.39573 -6.958599,-0.4586 -2.41164,-0.081 -4.814442,-0.0479 -7.193531,0.12295 -1.814389,0.17818 -3.686522,0.36948 -5.328403,0.73605 -0.252669,0.0565 -0.48469,0.12615 -0.727037,0.18916 -1.227591,0.33974 -2.226917,0.78664 -3.140054,1.25131 -0.440558,0.27963 -0.888668,0.57604 -1.078354,0.90119 -0.116879,0.20035 -0.155589,0.42986 -0.205618,0.63299 -0.209993,0.7051 -0.01972,1.34141 0.535135,2.01404 0.502356,0.49375 1.386431,0.87274 2.507039,1.15689 1.368498,0.30036 2.709453,0.6211 4.105495,0.90108 0.126368,0.0253 1.565002,0.12077 1.606644,0.12339 1.597635,0.0978 3.200331,0.14695 4.811304,0.19689 3.78032,0.0997 7.56213,0.20096 11.347789,0.26347 2.74249,0.006 5.52565,0.12251 8.25814,-0.0272 0.34572,-0.0189 0.6851,-0.0528 1.02766,-0.0791 2.1783,-0.21498 3.79273,-0.83045 5.41404,-1.40402 1.9003,-0.70497 3.1222,-1.6241 4.21937,-2.54376 0.74005,-0.73667 1.23825,-1.52611 1.18758,-2.32383 -0.009,-0.13532 -0.0561,-0.26974 -0.0841,-0.40462 -0.0974,-0.13735 -0.15931,-0.2794 -0.29233,-0.41204 -0.54164,-0.54015 -1.88475,-1.14292 -3.07075,-1.48138 -0.46411,-0.1324 -0.97036,-0.24031 -1.45556,-0.36046 -1.72118,-0.37837 -3.41185,-0.77913 -5.16354,-1.13509 -0.9073,-0.18438 -3.30211,-0.50026 -4.21532,-0.60923 -2.36025,-0.28169 -4.76006,-0.47637 -7.17856,-0.65936 -4.254129,-0.28468 -8.578679,-0.30596 -12.881682,-0.33465 -2.038893,-0.003 -4.10567,0.0237 -6.084933,0.23891 -1.287907,0.13997 -1.670726,0.23254 -2.885704,0.45177 -2.665147,0.49479 -4.763043,1.31782 -6.801432,2.13473 -1.524669,0.60717 -2.713299,1.31813 -3.781674,2.05647 -1.030823,0.71862 -1.701483,1.49791 -2.214057,2.2945 -0.251799,0.55819 -0.436589,1.1214 -0.458576,1.68901 -0.007,0.1793 -0.02367,0.35963 0.02645,0.53786 0.141076,0.50165 0.429041,0.79232 0.801193,1.27593 0.503575,0.47431 0.783039,0.79673 1.499101,1.23186 1.01002,0.61376 2.357625,1.16905 3.787519,1.63322 0.41891,0.13605 0.874321,0.25351 1.311481,0.38027 2.953035,0.65276 3.858684,1.02697 6.506196,1.28894 1.339623,0.13255 2.474432,0.17138 3.865151,0.21042 2.159909,0.0607 2.928563,0.0516 5.127893,0.0633 4.501115,0.0284 8.990545,-0.11101 13.480574,-0.2105 3.42804,-0.0834 6.85645,-0.16931 10.27274,-0.3106 0.41426,-0.0282 0.83491,-0.0445 1.24277,-0.0847 1.43838,-0.14172 3.36472,-0.52148 4.54862,-0.87355 0.42346,-0.12585 0.80475,-0.27249 1.20713,-0.40873 2.50485,-0.94043 4.85567,-1.94304 7.22146,-2.93735 0.97261,-0.40431 1.91029,-0.82342 2.64162,-1.30254 0.20636,-0.13517 0.37701,-0.27837 0.56552,-0.41756 0,0 -3.64121,-0.82105 -3.64121,-0.82105 v 0 c -0.17879,0.13503 -0.33936,0.27399 -0.53636,0.405 -0.71074,0.47265 -1.63199,0.88604 -2.58112,1.28548 -2.33771,0.99556 -4.68519,1.99202 -7.19937,2.91887 -0.39938,0.12818 -0.78074,0.26571 -1.19813,0.38471 -1.66537,0.47479 -3.63908,0.79279 -5.67122,0.89971 -3.4046,0.14685 -6.82312,0.22597 -10.24072,0.30986 -4.462229,0.10709 -8.923965,0.25872 -13.399549,0.2184 -2.433022,-0.0209 -4.882262,-0.0298 -7.291266,-0.18625 -0.571857,-0.0371 -1.140113,-0.0857 -1.697365,-0.14849 -0.515234,-0.0581 -1.847627,-0.37832 -1.513853,-0.21314 0.528147,0.26136 1.437917,0.35423 2.156874,0.53135 -0.446541,-0.12178 -0.912495,-0.23312 -1.33962,-0.36525 -1.434049,-0.44359 -2.813604,-0.98709 -3.83932,-1.58262 -0.717491,-0.41656 -1.02182,-0.74427 -1.532469,-1.20088 -0.360607,-0.44778 -0.675916,-0.76438 -0.824484,-1.23024 -0.05581,-0.17501 -0.04541,-0.35249 -0.04443,-0.52887 0.0031,-0.55643 0.175812,-1.10796 0.443227,-1.65373 0.50282,-0.7821 1.156305,-1.54796 2.158698,-2.25552 1.049275,-0.72569 2.234112,-1.42094 3.715576,-2.02281 1.990795,-0.80905 4.058095,-1.61169 6.694799,-2.08811 1.251333,-0.21598 1.520107,-0.2863 2.84196,-0.42019 1.958688,-0.19842 3.992443,-0.21524 6.001623,-0.21845 4.28137,0.0221 8.581919,0.0551 12.810199,0.3493 3.19179,0.24509 6.35282,0.52387 9.39602,0.98601 0.66213,0.10054 1.921,0.60871 1.95773,0.32949 0.0394,-0.29947 -1.29237,-0.3169 -1.93855,-0.47535 0.48174,0.11058 0.98274,0.20919 1.44522,0.33194 1.12561,0.29873 2.57804,0.90221 3.15053,1.3912 0.14265,0.12179 0.2173,0.25434 0.32595,0.38149 0.0374,0.12964 0.0958,0.25848 0.11221,0.38871 0.0976,0.77647 -0.38464,1.54791 -1.08664,2.26697 -1.05823,0.90357 -2.28224,1.79555 -4.14519,2.48397 -1.57166,0.55897 -3.16735,1.13818 -5.2979,1.32561 -3.0295,0.21387 -6.11828,0.12848 -9.17807,0.0902 -3.774709,-0.0711 -7.549609,-0.15081 -11.317875,-0.26326 -1.627087,-0.061 -3.252268,-0.11582 -4.860949,-0.23347 -0.309716,-0.0227 -0.618872,-0.0474 -0.923703,-0.0787 -0.221988,-0.0228 -0.846513,-0.13314 -0.654838,-0.0834 1.033315,0.26773 2.13111,0.49466 3.196666,0.742 -1.147835,-0.24534 -2.07937,-0.58175 -2.651332,-1.05384 -0.0988,-0.10476 -0.214261,-0.2073 -0.296418,-0.31427 -0.407534,-0.5306 -0.434841,-1.08733 -0.315974,-1.63515 0.04484,-0.1913 0.07903,-0.40793 0.183838,-0.59734 0.170164,-0.30756 0.569813,-0.59025 0.997888,-0.85168 0.883163,-0.45105 1.847322,-0.88369 3.049981,-1.20718 1.799879,-0.45192 3.857686,-0.70697 5.939187,-0.87513 2.3589,-0.15207 4.73639,-0.175 7.11969,-0.0943 2.340299,0.0716 4.712969,0.15938 6.903219,0.51765 -0.9679,-0.22872 -1.9372,-0.45653 -2.9037,-0.68618 -0.21503,-0.0511 0.43565,0.0985 0.64925,0.15052 0.52365,0.12745 1.04468,0.26326 1.44902,0.44915 0.0936,0.0431 0.16899,0.0917 0.25348,0.1375 0.44498,0.34122 0.45147,0.65349 0.36057,1.02962 -0.0912,0.4219 -0.23562,0.85286 -0.86729,1.20889 -0.85058,0.39253 -1.4743,0.54946 -2.76806,0.67469 -0.51746,0.0362 -0.90848,0.0688 -1.43776,0.0835 -1.11329,0.0309 -2.224719,-0.0422 -3.329459,-0.0829 -2.35269,-0.12295 -4.69119,-0.28524 -7.00106,-0.50141 z" />
    <rect
       style="fill:#6b6b6b;fill-opacity:1;stroke-width:0.044735"
       id="rect5-2-1"
       width="17.221079"
       height="11.849353"
       x="42.809437"
       y="36.058735" />
  </g>
</svg>
